# xmcd
#
# Track frame offsets: 
#        150
#        13900
#        31267
#        57082
#        74287
#        91617
#        119335
#        135272
#        147545
#        163752
#
# Disc length: 2519 seconds
#
# Revision: 1
# Processed by: cddbd v1.5.2PL0 Copyright (c) Steve Scherf et al.
# Submitted via: ExactAudioCopy v1.0b3
#
DISCID=8209d50a
DTITLE=Big Pete Pearson - Finger In Your Eye
DYEAR=2009
DGENRE=Blues
TTITLE0=Don't Mess With Me
TTITLE1=Short Change
TTITLE2=The Time Has Come
TTITLE3=Back Off
TTITLE4=Sister From The City
TTITLE5=Heartaches
TTITLE6=Mastermind
TTITLE7=That's That
TTITLE8=Gambling With My Heart
TTITLE9=Slippery When Wet
EXTD=
EXTT0=
EXTT1=
EXTT2=
EXTT3=
EXTT4=
EXTT5=
EXTT6=
EXTT7=
EXTT8=
EXTT9=
PLAYORDER=
